{"title":"My Teacher My Obsession 2018 1080p WEB-DL DD 5.1 x264 [MW]","magnet":"magnet:?xt=urn:btih:d5a6573cc1c104aca48883dc1acce4ac018227f3&dn=My+Teacher+My+Obsession+2018+1080p+WEB-DL+DD+5.1+x264+%5BMW%5D&tr=udp%3A%2F%2Ftracker.leechers-paradise.org%3A6969&tr=udp%3A%2F%2Fzer0day.ch%3A1337&tr=udp%3A%2F%2Fopen.demonii.com%3A1337&tr=udp%3A%2F%2Ftracker.coppersurfer.tk%3A6969&tr=udp%3A%2F%2Fexodus.desync.com%3A6969","uploader":"MFreaky","categoryP":"video","categoryS":"hd___movies","size":"1837129253","seeders":"7","leechers":"14","description":" <a href=\"https://pichub.site/image/DbQTY\" rel=\"nofollow\" target=\"_NEW\">https://pichub.site/image/DbQTY</a> <a href=\"\nhttps://pichub.site/image/Dbemt\" rel=\"nofollow\" target=\"_NEW\">\nhttps://pichub.site/image/Dbemt</a> <a href=\"\nhttps://pichub.site/image/DbbD6\" rel=\"nofollow\" target=\"_NEW\">\nhttps://pichub.site/image/DbbD6</a> <a href=\"\nhttps://pichub.site/image/Dbjs4\" rel=\"nofollow\" target=\"_NEW\">\nhttps://pichub.site/image/Dbjs4</a> <a href=\"\nhttps://pichub.site/image/De4Yp\" rel=\"nofollow\" target=\"_NEW\">\nhttps://pichub.site/image/De4Yp</a>\r\n\r\nIMDB <a href=\"\nhttps://www.imdb.com/title/tt6997574/\" rel=\"nofollow\" target=\"_NEW\">\nhttps://www.imdb.com/title/tt6997574/</a>\r\n\r\nVideo\r\nFormat                                   : AVC\r\nFormat/Info                              : Advanced Video Codec\r\nFormat profile                           : High@L4.1\r\nFormat settings                          : CABAC / 4 Ref Frames\r\nFormat settings, CABAC                   : Yes\r\nFormat settings, RefFrames               : 4 frames\r\nCodec ID                                 : V_MPEG4/ISO/AVC\r\nDuration                                 : 1 h 26 min\r\nBit rate                                 : 2 500 kb/s\r\nWidth                                    : 1 920 pixels\r\nHeight                                   : 1 080 pixels\r\nDisplay aspect ratio                     : 16:9\r\nFrame rate mode                          : Constant\r\nFrame rate                               : 23.976 (24000/1001) FPS\r\nColor space                              : YUV\r\nChroma subsampling                       : 4:2:0\r\nBit depth                                : 8 bits\r\nScan type                                : Progressive\r\nBits/(Pixel*Frame)                       : 0.050\r\nStream size                              : 1.48 GiB (86%)\r\nWriting library                          : x264 core 155 r2901 7d0ff22\r\n\r\nAudio\r\nFormat                                   : AC-3\r\nFormat/Info                              : Audio Coding 3\r\nCodec ID                                 : A_AC3\r\nDuration                                 : 1 h 26 min\r\nBit rate mode                            : Constant\r\nBit rate                                 : 384 kb/s\r\nChannel(s)                               : 6 channels\r\nChannel positions                        : Front: L C R, Side: L R, LFE\r\nSampling rate                            : 48.0 kHz\r\nFrame rate                               : 31.250 FPS (1536 SPF)\r\nBit depth                                : 16 bits\r\nCompression mode                         : Lossy\r\nStream size                              : 237 MiB (14%)\r\nService kind                             : Complete Main","last_updated":"2018-09-12T12:13:40.288Z","parsed":{"xt":"urn:btih:d5a6573cc1c104aca48883dc1acce4ac018227f3","dn":"My Teacher My Obsession 2018 1080p WEB-DL DD 5.1 x264 [MW]","tr":["udp://exodus.desync.com:6969","udp://open.demonii.com:1337","udp://tracker.coppersurfer.tk:6969","udp://tracker.leechers-paradise.org:6969","udp://zer0day.ch:1337"],"infoHash":"d5a6573cc1c104aca48883dc1acce4ac018227f3","infoHashBuffer":{"type":"Buffer","data":[213,166,87,60,193,193,4,172,164,136,131,220,26,204,228,172,1,130,39,243]},"name":"My Teacher My Obsession 2018 1080p WEB-DL DD 5.1 x264 [MW]","announce":["udp://exodus.desync.com:6969","udp://open.demonii.com:1337","udp://tracker.coppersurfer.tk:6969","udp://tracker.leechers-paradise.org:6969","udp://zer0day.ch:1337"],"urlList":[]}}